<svg xmlns="http://www.w3.org/2000/svg" viewBox="0 0 516 450" role="img" aria-labelledby="title desc">
  <title id="title">feeldriven icon logo</title>
  <desc id="desc">Orange line icon of a person placing a flag on a mountain peak.</desc>
  <g fill="none" stroke="#ff6333" stroke-linecap="round" stroke-linejoin="round" stroke-width="8">
    <path d="M33 414h446L361 253H151L33 414Z" />
    <path d="M79 354l42 14 38-57 34 55 32-59 70 55 22-68 61 59 36-27" />
    <path d="M166 253V142" />
    <path d="M200 253v-63" />
    <path d="M238 253v-96h53v-31h-55c-17 0-29-10-34-29-40 6-69 45-69 94v20h33v-34" />
    <circle cx="202" cy="63" r="34" />
    <path d="M315 253V42" />
    <path d="M315 42h117l-36 39 37 39H315" />
  </g>
</svg>
